<?xml version="1.0" encoding="utf-8"?>
<!-- Uploaded to: SVG Repo, www.svgrepo.com, Generator: SVG Repo Mixer Tools -->
<svg width="800px" height="800px" viewBox="0 0 1024 1024" class="icon"  version="1.1" xmlns="http://www.w3.org/2000/svg"><path d="M753.101445 888.046459c0.014334 20.41013-16.519366 36.96738-36.929496 36.981714l-605.153087 0.430032c-20.41013 0.014334-36.96738-16.519366-36.981714-36.929496l-0.41365-715.842258c-0.014334-20.41013 16.519366-36.96738 36.929496-36.981714l605.153087-0.430032c20.41013-0.014334 36.96738 16.519366 36.981714 36.929496l0.41365 715.842258z" fill="#DCE5F7" /><path d="M111.036268 937.356776h-0.034812c-26.924089 0-48.851617-21.903979-48.86288-48.816804l-0.418769-715.843282c-0.011263-13.049418 5.066185-25.320684 14.292416-34.558178 9.214968-9.226231 21.486234-14.315965 34.523365-14.328251l605.160254-0.430032c26.970163 0 48.875166 21.903979 48.886429 48.816805l0.418769 715.843281c0.011263 13.049418-5.066185 25.320684-14.292415 34.559202-9.214968 9.226231-21.486234 14.315965-34.523366 14.328251l-605.148991 0.429008z m604.718959-790.177356l-605.195066 0.430032c-6.693138 0-12.979794 2.615003-17.70912 7.344329-4.729326 4.740589-7.332043 11.039532-7.332043 17.721407l0.418769 715.843282c0.011263 13.805046 11.248404 25.042187 25.064713 25.042187l605.160254-0.430032c6.693138 0 12.979794-2.615003 17.70912-7.344329 4.729326-4.740589 7.332043-11.039532 7.332043-17.720383l-0.418769-715.843282c-0.012287-13.807094-11.237141-25.043211-25.029901-25.043211z" fill="#4E6DC4" /><path d="M111.036268 937.356776h-0.034812c-26.924089 0-48.851617-21.903979-48.86288-48.816804l-0.418769-715.843282c-0.011263-13.049418 5.066185-25.320684 14.292416-34.558178 9.214968-9.226231 21.486234-14.315965 34.523365-14.328251l605.160254-0.430032c26.970163 0 48.875166 21.903979 48.886429 48.816805l0.418769 715.843281c0.011263 13.049418-5.066185 25.320684-14.292415 34.559202-9.214968 9.226231-21.486234 14.315965-34.523366 14.328251l-605.148991 0.429008z m604.718959-790.177356l-605.195066 0.430032c-6.693138 0-12.979794 2.615003-17.70912 7.344329-4.729326 4.740589-7.332043 11.039532-7.332043 17.721407l0.418769 715.843282c0.011263 13.805046 11.248404 25.042187 25.064713 25.042187l605.160254-0.430032c6.693138 0 12.979794-2.615003 17.70912-7.344329 4.729326-4.740589 7.332043-11.039532 7.332043-17.720383l-0.418769-715.843282c-0.012287-13.807094-11.237141-25.043211-25.029901-25.043211z" fill="#4E6DC4" /><path d="M654.666133 331.656934c0 11.782872-9.854896 21.335722-22.011486 21.335723H194.070296c-12.15659 0-22.011487-9.551826-22.011487-21.335723 0-11.782872 9.854896-21.335722 22.011487-21.335722h438.584351c12.15659 0.001024 22.011487 9.55285 22.011486 21.335722zM654.666133 509.411618c0 11.782872-9.854896 21.335722-22.011486 21.335722H194.070296c-12.15659 0-22.011487-9.551826-22.011487-21.335722 0-11.782872 9.854896-21.335722 22.011487-21.335723h438.584351c12.15659 0 22.011487 9.551826 22.011486 21.335723zM424.368727 687.165277c0 11.782872-9.854896 21.335722-22.011487 21.335723H194.070296c-12.15659 0-22.011487-9.551826-22.011487-21.335723 0-11.782872 9.854896-21.335722 22.011487-21.335722h208.28592c12.157614 0.001024 22.012511 9.55285 22.012511 21.335722z" fill="#4E6DC4" /><path d="M791.017966 739.719263c-25.618635 39.005935-101.491609 71.241941-134.196554 49.761851l-16.06988-10.55421c-32.704945-21.48009-33.26501-103.916169-7.646376-142.922105l135.113955-205.723135c25.618635-39.005935 72.898587-53.213368 105.603533-31.734301l39.477946 25.928872c32.704945 21.48009 38.449966 70.512935 12.832355 109.519893L791.017966 739.719263z" fill="#DCE5F7" /><path d="M649.229302 790.118995l58.84269 3.031724 84.721391-42.537316-158.307005-114.608604-22.820357 81.676357z" fill="#FFFFFF" /><path d="M792.878366 740.652023c-25.618635 39.005935-102.107988 70.837506-135.340234 49.011343l-16.329947-10.725199c-33.232246-21.826163-34.40869-104.666677-8.79108-143.672613l135.113956-205.723135c25.618635-39.005935 73.326571-52.932824 106.558817-31.10666l40.114803 26.346617c33.232246 21.826163 39.405251 71.140576 13.786616 110.146512L792.878366 740.652023z" fill="#FFFFFF" /><path d="M685.51887 808.673845c-13.735422 0-25.355496-3.044011-34.512103-9.063433l-16.326875-10.725199c-39.590574-25.994401-41.042443-116.237605-12.212904-160.149999l135.120098-205.725183c18.952117-28.864351 50.094613-46.794631 81.284208-46.794631 15.082855 0 29.526805 4.240933 41.751996 12.271265l40.112756 26.354809c19.034028 12.503688 31.200858 32.780713 34.233605 57.102084 2.963124 23.600557-3.09111 48.293599-17.035404 69.512599L802.825412 747.179292c-21.892716 33.33873-75.612907 61.494553-117.306542 61.494553z m153.352424-408.661302c-23.263698 0-46.783368 13.816309-61.390116 36.058169L642.36108 641.795895c-23.333323 35.534964-20.161326 110.427056 5.380517 127.195226l16.326875 10.725199c5.135809 3.369607 12.561025 5.159358 21.451422 5.159358 33.53634 0 79.959301-24.193386 97.41245-50.757067l135.108835-205.725183c10.841922-16.500936 15.571248-35.500152 13.316653-53.500056-2.161422-17.291375-10.574688-31.548979-23.682468-40.159854l-40.112755-26.354808c-8.332379-5.472667-18.255875-8.366167-28.691315-8.366167z" fill="#4E6DC4" /><path d="M914.629593 565.885037c-6.667541 10.151823-18.177036 14.371254-25.707712 9.425888l-144.701618-95.037036c-7.530677-4.94639-8.231014-17.184891-1.563473-27.336714 6.667541-10.151823 18.177036-14.371254 25.707713-9.425888l144.701618 95.037036c7.530677 4.94639 8.231014 17.184891 1.563472 27.336714z" fill="#FFFFFF" /><path d="M896.090102 589.283888c-4.950486 0-9.691075-1.394532-13.70061-4.020797l-144.695474-95.042156c-6.775049-4.45083-10.946358-12.097205-11.457277-20.986577-0.441295-7.69245 1.859376-15.80367 6.473004-22.833667 9.993121-15.187291 29.491993-21.149375 42.182027-12.840546l144.706737 95.042156c6.775049 4.45083 10.946358 12.097205 11.457277 20.986577 0.430032 7.69245-1.870638 15.80367-6.484266 22.833667-6.821124 10.388341-17.73267 16.861344-28.481418 16.861343zM761.585358 453.442974c-2.474731 0-6.123858 1.673029-8.982546 6.030685-1.813301 2.754252-2.754252 5.810549-2.602716 8.400979 0.080887 1.475419 0.510919 2.289408 0.76689 2.452205l145.323116 95.157855c1.835826 0 5.635465-1.638217 8.587326-6.123858 1.812277-2.765514 2.765514-5.821812 2.615003-8.413266-0.080887-1.405795-0.488393-2.277121-0.76689-2.452205l-144.695474-95.042156c-0.081911 0.001024-0.163822-0.010239-0.244709-0.010239zM817.116803 446.803078c-3.244693 0-6.513958-1.272689-9.05217-3.768922-5.025229-4.958677-4.892124-13.220407 0.058361-18.245636 1.306478-1.32286 6.422833-5.948774 17.529941-9.959333 14.801286-5.349801 25.932968 1.514326 27.155486 2.321148 5.898603 3.877454 7.546035 11.797207 3.668582 17.69581-3.785304 5.765498-11.415297 7.446718-17.263731 3.944007-0.474059-0.224231-2.221831-0.881565-4.900315 0.082934-5.906794 2.129681-8.336474 4.19281-8.361048 4.210217-2.453229 2.488041-5.631369 3.719775-8.835106 3.719775zM778.736462 766.922873a11.836114 11.836114 0 0 1-1.801015-0.139249c-6.484266-0.988049-10.946358-7.029997-9.981858-13.502999 0.058361-0.453581 2.196234-18.058265-7.077095-24.158575-7.809173-5.148095-22.810117 2.951861-26.098837 5.228983-5.437855 3.741277-12.816996 2.347769-16.559297-3.056298a11.933383 11.933383 0 0 1-2.044699-7.796887 11.910858 11.910858 0 0 1-0.151535-4.311581c0.023549-0.186347 2.277121-18.034716-7.077096-24.169837-7.018734-4.601341-20.649719 1.53378-26.145935 5.240245-5.437855 3.683939-12.828259 2.265858-16.512199-3.137184a11.819732 11.819732 0 0 1-2.044699-5.867887 11.794135 11.794135 0 0 1-0.953237-6.762763c0.011263-0.127986 2.265858-17.976355-7.088358-24.112499-7.007471-4.601341-20.660982 1.53378-26.145936 5.240245-5.437855 3.671653-12.816996 2.265858-16.512199-3.137185-3.695202-5.415329-2.335482-12.782184 3.056298-16.500936 11.074344-7.611564 34.628826-17.326187 52.663542-5.496216 12.258979 8.041595 16.407762 21.230262 17.615947 31.688227 11.050794-3.46278 24.112499-4.264482 35.128481 2.951861 11.94567 7.843985 16.186603 20.556546 17.523798 30.875262 10.132369-3.125922 22.972915-4.276769 34.407666 3.230358 22.287936 14.64156 17.756219 46.2489 17.546323 47.585071-0.894876 5.891436-5.96106 10.109844-11.74806 10.109844zM655.678756 807.405251c-4.657654 7.09143-15.525173 8.181868-24.274273 2.434799-8.7491-5.746044-12.066489-16.152815-7.408835-23.244245l12.266147-18.675668c4.657654-7.09143 15.525173-8.181868 24.274273-2.434799 8.7491 5.746044 12.066489 16.152815 7.408834 23.244244l-12.266146 18.675669z" fill="#4E6DC4" /><path d="M741.55509 725.927528a15.583535 15.583535 0 0 1-8.604732-2.575071c-7.246036-4.762091-9.269234-14.492073-4.507144-21.73811l98.868415-150.540835c4.762091-7.246036 14.502312-9.269234 21.738109-4.507143 7.246036 4.762091 9.269234 14.492073 4.507144 21.738109L754.688467 718.845313a15.683875 15.683875 0 0 1-13.133377 7.082215zM688.635577 683.415809c-2.964148 0-5.94775-0.828323-8.604732-2.575071-7.246036-4.762091-9.269234-14.492073-4.507144-21.738109l98.868415-150.540836c4.762091-7.246036 14.502312-9.269234 21.738109-4.507143 7.246036 4.762091 9.269234 14.492073 4.507144 21.738109l-98.868415 150.540836a15.685923 15.685923 0 0 1-13.133377 7.082214z" fill="#4E6DC4" /></svg>