<?xml version="1.0" encoding="utf-8"?>
<!-- Uploaded to: SVG Repo, www.svgrepo.com, Generator: SVG Repo Mixer Tools -->
<svg width="800px" height="800px" viewBox="0 0 1024 1024" class="icon"  version="1.1" xmlns="http://www.w3.org/2000/svg"><path d="M715.441919 184.731438c-87.24834 0-162.081047 14.891388-201.099269 39.869071-39.043819-25.00328-113.852976-39.869071-201.099269-39.869071-108.446862 0-235.112739 24.377686-235.11274 92.953429v525.162046a33.912106 33.912106 0 0 0 12.113588 26.00464c6.107476 5.155263 13.890028 8.033404 21.899883 8.033404 1.927976 0 3.853904-0.149487 5.78188-0.549827 58.939959-10.185611 126.51639-15.591726 195.318413-15.591725 68.87779 0 136.376406 5.406115 195.243668 15.591725 0.701361 0.149487 1.376102 0.149487 2.00272 0.224231l0.776105 0.074744c0.701361 0.074744 1.376102 0.149487 1.927976 0.149487 2.152207 0.301022 4.22967 0 6.331707-0.375766l0.626618-0.074743c58.939959-10.185611 126.441647-15.591726 195.318412-15.591726s136.376406 5.406115 195.318413 15.591726c1.851185 0.301022 3.853904 0.549826 5.78188 0.549826 8.033404 0 15.743261-2.853568 21.899883-8.033404a33.909034 33.909034 0 0 0 12.113587-26.003616V277.683843c-0.007167-68.600317-126.673045-92.952405-235.143455-92.952405z" fill="#DCE5F7" /><path d="M515.029677 848.418001c-0.910234 0-1.821492-0.045051-2.742989-0.146415a41.96394 41.96394 0 0 1-2.309885-0.20273c-1.944358-0.162798-2.917049-0.269282-3.917386-0.483274-57.85464-9.99824-124.689779-15.331659-192.811941-15.331658-68.10578 0-134.963444 5.333419-193.357672 15.42176-2.197258 0.460748-4.850145 0.719791-7.744668 0.719792-10.695506 0-21.109444-3.816021-29.326124-10.745677a45.399075 45.399075 0 0 1-16.197866-34.799814V277.686915c0-77.019726 127.398979-104.462924 246.620187-104.462924 84.719343 0 158.984818 14.107092 201.102341 37.953381 42.128786-23.846289 116.38914-37.953381 201.096197-37.953381 119.238613 0 246.647831 27.443198 246.653974 104.462924v525.156926a45.365287 45.365287 0 0 1-16.214248 34.811078c-10.178444 8.564801-24.250724 12.094133-36.919257 10.043291-58.494569-10.110868-125.358376-15.444286-193.486681-15.444286-68.133425 0-134.997232 5.333419-193.357672 15.42176-0.213992 0.038908-1.050506 0.140272-1.264498 0.162798-1.471323 0.287712-3.634793 0.579519-5.821812 0.579519z m-201.782201-39.184091c69.415329 0 137.610188 5.451165 197.201338 15.758619 0.157678 0.011263 1.219447 0.117747 1.377125 0.135153l1.545043 0.151535c0.314333 0.016382 1.118083 0.061433 1.43344 0.106484l0.225255 0.011263c0.826275 0 1.641288-0.174061 2.467563-0.320477 0.230374-0.038908 1.095557-0.146416 1.332075-0.17406 59.001392-10.217352 127.218775-15.669541 196.645368-15.669541 69.420449 0 137.638856 5.451165 197.280176 15.758619 5.67642 0.898971 13.190715-0.652215 18.305022-4.951509a22.404659 22.404659 0 0 0 8.013951-17.198202V277.686915c-0.005119-56.258403-112.32022-81.441887-223.633961-81.441886-84.819684 0-157.675268 14.224839-194.891452 38.054745a11.527925 11.527925 0 0 1-12.409491 0c-37.205945-23.829907-110.065625-38.054746-194.897595-38.054745-111.297359 0-223.600173 25.184507-223.600173 81.441886v525.16307a22.443566 22.443566 0 0 0 8.013951 17.198202c4.075064 3.439231 9.217016 5.328299 14.489001 5.328299 1.309549 0 2.438895-0.101365 3.450493-0.309214 60.042683-10.381173 128.260067-15.833363 197.652871-15.833362z" fill="#4E6DC4" /><path d="M882.65775 286.06844V766.104788c-51.533172-6.782216-109.1472-10.410866-167.162589-10.410866S599.866767 759.247828 548.333595 766.104788V286.06844c12.814949-10.336122 68.726255-30.534308 167.162589-30.534308s154.373238 20.198186 167.161566 30.534308z" fill="#FFFFFF" /><path d="M882.658774 777.614283c-0.50068 0-1.000336-0.033788-1.501016-0.101364-102.973171-13.556242-230.422321-13.432352-331.305741 0-3.271314 0.460748-6.60406-0.562113-9.099269-2.748109a11.519734 11.519734 0 0 1-3.928648-8.661046V286.066393c0-3.479162 1.573712-6.771978 4.282912-8.958997 16.489673-13.297199 76.541571-33.08583 174.389172-33.08583 97.903915 0 157.933287 19.788632 174.395316 33.091973a11.512567 11.512567 0 0 1 4.276769 8.952854V766.104788a11.507447 11.507447 0 0 1-11.509495 11.509495z m-167.161566-33.428832c53.341354 0 106.845505 3.057322 155.652071 8.874014V292.349977c-15.146336-8.09279-63.766554-25.307374-155.652071-25.307374-91.834323 0-140.482186 17.214584-155.651047 25.307374v460.699249c48.349913-5.806454 101.854064-8.863775 155.651047-8.863775z" fill="#4E6DC4" /><path d="M480.383445 286.06844V766.104788c-52.232486-6.932728-109.923305-10.561377-167.16259-10.561377s-114.928056 3.62865-167.16259 10.561377V286.06844c12.814949-10.336122 68.726255-30.534308 167.16259-30.534308 98.436335-0.100341 154.424432 20.198186 167.16259 30.534308z" fill="#FFFFFF" /><path d="M480.381397 777.614283c-0.505799 0-1.011599-0.033788-1.517398-0.101364-103.058153-13.673989-228.208681-13.685251-331.288335 0-3.287696 0.460748-6.60406-0.562113-9.099269-2.748109a11.519734 11.519734 0 0 1-3.928648-8.661046V286.066393c0-3.479162 1.573712-6.771978 4.282912-8.958997 16.489673-13.297199 76.541571-33.08583 174.389172-33.08583 98.218248 0 158.017246 19.799894 174.417842 33.108355a11.511543 11.511543 0 0 1 4.254243 8.936472V766.104788a11.507447 11.507447 0 0 1-11.510519 11.509495zM157.56776 292.349977v460.699249c98.117907-11.813589 213.196474-11.813589 311.303118 0V292.253732c-17.321068-9.476059-70.460716-25.212152-154.959924-25.212153-92.446606 0-141.174332 17.214584-156.343194 25.308398z" fill="#4E6DC4" /><path d="M599.75414 411.846609c0 8.784936 7.182556 15.967492 15.967491 15.967492h203.027245c8.784936 0 15.967492-7.182556 15.967492-15.967492 0-8.784936-7.182556-15.967492-15.967492-15.967491h-203.026221c-8.809509-0.001024-15.968516 7.182556-15.968515 15.967491zM818.674132 494.864255h-203.026221c-8.784936 0-15.967492 7.182556-15.967491 15.967492 0 8.784936 7.182556 15.967492 15.967491 15.967491h203.027245c8.784936 0 15.967492-7.182556 15.967492-15.967491 0-8.784936-7.182556-15.967492-15.968516-15.967492zM818.674132 593.82482h-203.026221c-8.784936 0-15.967492 7.182556-15.967491 15.967491 0 8.784936 7.182556 15.967492 15.967491 15.967492h203.027245c8.784936 0 15.967492-7.182556 15.967492-15.967492 0-8.784936-7.182556-15.967492-15.968516-15.967491zM209.968164 625.760827h203.027245c8.784936 0 15.967492-7.182556 15.967491-15.967492 0-8.784936-7.182556-15.967492-15.967491-15.967491H209.968164c-8.784936 0-15.967492 7.182556-15.967492 15.967491-0.001024 8.783912 7.157982 15.967492 15.967492 15.967492zM209.968164 526.799238h203.027245c8.784936 0 15.967492-7.182556 15.967491-15.967491 0-8.784936-7.182556-15.967492-15.967491-15.967492H209.968164c-8.784936 0-15.967492 7.182556-15.967492 15.967492-0.001024 8.784936 7.157982 15.967492 15.967492 15.967491zM209.968164 427.814101h203.027245c8.784936 0 15.967492-7.182556 15.967491-15.967492 0-8.784936-7.182556-15.967492-15.967491-15.967491H209.968164c-8.784936 0-15.967492 7.182556-15.967492 15.967491-0.001024 8.784936 7.157982 15.967492 15.967492 15.967492z" fill="#4E6DC4" /></svg>